# xmcd
#
# Track frame offsets:
# 150
# 22587
# 51934
# 89592
# 144487
# 166164
# 193672
# 222263
# 241258
# 287423
#
# Disc length: 4244 seconds
#
#
# Revision: 4
# Processed by: cddbd v1.5.2PL0 Copyright (c) Steve Scherf et al.
# Submitted via: FreeRIP 2.96 
#
DISCID=8310920a
DTITLE=Jan Akkerman - 10.000 Clowns On A Rainy Day - Disc 1
DYEAR=1997
DGENRE=Blues
TTITLE0=Intro (10.000 Clowns)
TTITLE1=Puccini's Café
TTITLE2=Skydancer
TTITLE3=Eruptions
TTITLE4=Focus 2
TTITLE5=Pre Madonna
TTITLE6=Virgin Mary
TTITLE7=Soft Focus
TTITLE8=Pedestrians
TTITLE9=No Hang Ups
EXTD=YEAR: 1997 ID3G: 0
EXTT0=
EXTT1=
EXTT2=
EXTT3=Orpheo\nQuestions Answers\nDistant Drums\nPuppilla\nTommy\nAnswers Questions\nThe New Bridge\nOrpheo
EXTT4=
EXTT5=
EXTT6=
EXTT7=
EXTT8=Miss En Scene\nNico's Delight\nJ's 2000 Flight
EXTT9=
PLAYORDER=
